<svg width="1254" height="552" viewBox="0 0 1254 552" fill="none" xmlns="http://www.w3.org/2000/svg">
<rect width="306.495" height="78.2202" fill="#007ABF"/>
<rect x="213.908" y="98.9725" width="255.413" height="119.725" transform="rotate(90 213.908 98.9725)" fill="#007ABF"/>
<path d="M445.376 208.321L445.376 354.385L343.211 354.385L343.211 41.5046L445.376 208.321Z" fill="#007ABF"/>
<path d="M582.661 146.064L582.661 -3.21865e-05L684.826 -3.09682e-05L684.826 316.073L582.661 146.064Z" fill="#007ABF"/>
<path d="M560.312 354.385L348 -6.93798e-05L461.339 -6.80282e-05L677.642 354.385L560.312 354.385Z" fill="#007ABF"/>
<path d="M1112.64 150.853L1147.76 -2.51516e-05L1253.12 -2.38952e-05L1158.14 332.835L1112.64 150.853Z" fill="#007ABF"/>
<path d="M830.89 354.385L721.541 -6.93798e-05L838.073 -6.79902e-05L890.752 196.349L926.67 52.6788L971.367 222.688L931.459 354.385L830.89 354.385Z" fill="#007ABF"/>
<path d="M1031.23 354.385L937.046 -6.93798e-05L1050.39 -6.80282e-05L1138.98 354.385L1031.23 354.385Z" fill="#007ABF"/>
<path d="M87.0503 512H72.2236V426.746H42.8448V413.979H116.429V426.746H87.0503V512ZM144.363 435.533C144.363 437.821 144.272 440.109 144.089 442.397C143.906 444.685 143.723 446.561 143.54 448.025H144.501C146.057 445.463 147.979 443.358 150.267 441.71C152.646 440.063 155.255 438.827 158.092 438.004C161.021 437.18 163.995 436.768 167.015 436.768C172.873 436.768 177.769 437.729 181.705 439.651C185.732 441.482 188.752 444.41 190.765 448.437C192.871 452.373 193.923 457.498 193.923 463.813V512H179.508V465.872C179.508 460.106 178.273 455.805 175.801 452.968C173.422 450.039 169.578 448.575 164.27 448.575C159.236 448.575 155.255 449.581 152.326 451.595C149.489 453.608 147.429 456.583 146.148 460.518C144.958 464.362 144.363 469.122 144.363 474.796V512H129.811V407.664H144.363V435.533ZM245.389 436.631C251.887 436.631 257.47 438.004 262.137 440.749C266.805 443.404 270.374 447.248 272.845 452.281C275.408 457.315 276.689 463.264 276.689 470.128V478.091H226.992C227.176 485.687 229.143 491.499 232.896 495.526C236.74 499.553 242.094 501.566 248.958 501.566C253.717 501.566 257.927 501.155 261.588 500.331C265.341 499.416 269.185 498.089 273.12 496.35V508.431C269.459 510.078 265.707 511.314 261.863 512.137C258.11 512.961 253.626 513.373 248.409 513.373C241.27 513.373 234.955 511.954 229.464 509.117C223.972 506.28 219.671 502.07 216.559 496.487C213.539 490.812 212.028 483.857 212.028 475.62C212.028 467.291 213.401 460.244 216.147 454.478C218.984 448.712 222.874 444.319 227.816 441.299C232.85 438.187 238.707 436.631 245.389 436.631ZM245.389 447.888C240.172 447.888 235.962 449.581 232.758 452.968C229.647 456.354 227.816 461.159 227.267 467.383H262.137C262.137 463.539 261.542 460.152 260.353 457.224C259.163 454.295 257.332 452.007 254.861 450.359C252.39 448.712 249.233 447.888 245.389 447.888ZM412.605 512H394.621L345.061 432.787H344.512C344.604 434.617 344.695 436.585 344.787 438.69C344.97 440.795 345.107 443.037 345.199 445.417C345.29 447.705 345.382 450.085 345.473 452.556C345.565 454.935 345.611 457.361 345.611 459.832V512H332.157V413.979H350.004L399.426 492.78H399.838C399.746 491.407 399.655 489.714 399.563 487.701C399.472 485.596 399.38 483.353 399.289 480.974C399.289 478.594 399.243 476.169 399.151 473.698C399.06 471.227 398.968 468.893 398.877 466.696V413.979H412.605V512ZM451.644 438.004V512H437.092V438.004H451.644ZM444.506 409.86C446.702 409.86 448.624 410.501 450.272 411.782C451.919 413.064 452.743 415.214 452.743 418.235C452.743 421.163 451.919 423.314 450.272 424.687C448.624 425.968 446.702 426.609 444.506 426.609C442.126 426.609 440.113 425.968 438.465 424.687C436.909 423.314 436.131 421.163 436.131 418.235C436.131 415.214 436.909 413.064 438.465 411.782C440.113 410.501 442.126 409.86 444.506 409.86ZM501.13 501.566C503.052 501.566 505.02 501.383 507.033 501.017C509.047 500.651 510.786 500.239 512.25 499.782V510.764C510.694 511.497 508.589 512.092 505.935 512.549C503.281 513.098 500.627 513.373 497.973 513.373C493.946 513.373 490.239 512.686 486.853 511.314C483.558 509.941 480.904 507.561 478.89 504.175C476.877 500.788 475.87 496.075 475.87 490.034V449.124H465.573V442.534L476.419 437.043L481.498 421.392H490.422V438.004H511.564V449.124H490.422V489.76C490.422 493.787 491.383 496.761 493.305 498.683C495.318 500.605 497.927 501.566 501.13 501.566ZM563.569 436.631C564.85 436.631 566.269 436.722 567.825 436.905C569.381 436.997 570.662 437.134 571.669 437.317L570.158 450.908C569.152 450.634 567.962 450.405 566.589 450.222C565.216 450.039 563.935 449.947 562.745 449.947C559.999 449.947 557.345 450.497 554.783 451.595C552.311 452.602 550.069 454.112 548.056 456.125C546.042 458.047 544.441 460.427 543.251 463.264C542.152 466.101 541.603 469.35 541.603 473.011V512H527.051V438.004H538.583L540.505 451.183H541.054C542.61 448.529 544.486 446.103 546.683 443.907C548.879 441.71 551.396 439.971 554.233 438.69C557.071 437.317 560.182 436.631 563.569 436.631ZM621.888 436.631C623.169 436.631 624.588 436.722 626.144 436.905C627.7 436.997 628.981 437.134 629.988 437.317L628.477 450.908C627.471 450.634 626.281 450.405 624.908 450.222C623.535 450.039 622.254 449.947 621.064 449.947C618.318 449.947 615.664 450.497 613.102 451.595C610.631 452.602 608.388 454.112 606.375 456.125C604.361 458.047 602.76 460.427 601.57 463.264C600.471 466.101 599.922 469.35 599.922 473.011V512H585.37V438.004H596.902L598.824 451.183H599.373C600.929 448.529 602.805 446.103 605.002 443.907C607.198 441.71 609.715 439.971 612.553 438.69C615.39 437.317 618.501 436.631 621.888 436.631ZM692.837 491.133C692.837 495.983 691.647 500.056 689.268 503.351C686.888 506.646 683.456 509.163 678.971 510.902C674.487 512.549 669.087 513.373 662.772 513.373C657.555 513.373 653.07 512.961 649.318 512.137C645.657 511.405 642.271 510.307 639.159 508.842V496.075C642.454 497.631 646.252 499.05 650.554 500.331C654.855 501.521 659.065 502.116 663.184 502.116C668.675 502.116 672.611 501.246 674.99 499.507C677.461 497.768 678.697 495.434 678.697 492.506C678.697 490.858 678.239 489.394 677.324 488.113C676.409 486.74 674.67 485.367 672.107 483.994C669.636 482.53 665.975 480.882 661.124 479.052C656.457 477.13 652.475 475.254 649.181 473.423C645.886 471.501 643.369 469.259 641.63 466.696C639.891 464.042 639.022 460.656 639.022 456.537C639.022 450.13 641.584 445.234 646.71 441.848C651.926 438.37 658.791 436.631 667.302 436.631C671.787 436.631 675.997 437.088 679.932 438.004C683.959 438.827 687.849 440.109 691.602 441.848L686.797 452.968C684.692 451.961 682.495 451.137 680.207 450.497C678.01 449.764 675.768 449.169 673.48 448.712C671.283 448.254 668.995 448.025 666.616 448.025C662.223 448.025 658.882 448.712 656.594 450.085C654.306 451.458 653.162 453.38 653.162 455.851C653.162 457.59 653.665 459.1 654.672 460.381C655.77 461.662 657.647 462.944 660.301 464.225C662.955 465.506 666.57 467.062 671.146 468.893C675.722 470.632 679.612 472.416 682.815 474.247C686.11 476.077 688.581 478.32 690.229 480.974C691.968 483.628 692.837 487.014 692.837 491.133ZM724.739 435.533C724.739 437.821 724.647 440.109 724.464 442.397C724.281 444.685 724.098 446.561 723.915 448.025H724.876C726.432 445.463 728.354 443.358 730.642 441.71C733.021 440.063 735.63 438.827 738.467 438.004C741.396 437.18 744.37 436.768 747.39 436.768C753.248 436.768 758.144 437.729 762.08 439.651C766.107 441.482 769.127 444.41 771.141 448.437C773.246 452.373 774.298 457.498 774.298 463.813V512H759.883V465.872C759.883 460.106 758.648 455.805 756.177 452.968C753.797 450.039 749.953 448.575 744.645 448.575C739.611 448.575 735.63 449.581 732.701 451.595C729.864 453.608 727.805 456.583 726.523 460.518C725.333 464.362 724.739 469.122 724.739 474.796V512H710.186V407.664H724.739V435.533ZM948.876 413.979L923.066 512H907.279L889.981 451.458C889.432 449.81 888.882 447.98 888.333 445.966C887.876 443.953 887.418 441.985 886.961 440.063C886.503 438.049 886.091 436.265 885.725 434.709C885.45 433.153 885.222 431.963 885.039 431.139C884.947 431.963 884.764 433.153 884.489 434.709C884.215 436.265 883.849 438.049 883.391 440.063C882.933 441.985 882.476 443.998 882.018 446.103C881.561 448.117 881.057 450.039 880.508 451.869L863.485 512H847.697L822.025 413.979H837.264L851.678 471.913C852.136 473.926 852.594 475.986 853.051 478.091C853.509 480.196 853.921 482.301 854.287 484.406C854.744 486.511 855.111 488.57 855.385 490.584C855.751 492.506 856.072 494.29 856.346 495.938C856.621 494.199 856.895 492.323 857.17 490.309C857.536 488.296 857.948 486.236 858.405 484.131C858.863 481.935 859.321 479.784 859.778 477.679C860.327 475.574 860.876 473.652 861.426 471.913L877.762 413.979H892.589L909.475 472.188C910.024 474.018 910.528 475.986 910.985 478.091C911.534 480.196 912.038 482.347 912.495 484.543C912.953 486.648 913.319 488.707 913.594 490.721C913.96 492.643 914.28 494.382 914.555 495.938C914.829 493.65 915.195 491.179 915.653 488.524C916.202 485.779 916.797 482.987 917.438 480.15C918.078 477.221 918.719 474.476 919.36 471.913L933.774 413.979H948.876ZM1024.09 474.933C1024.09 481.065 1023.27 486.511 1021.62 491.27C1019.97 496.029 1017.64 500.056 1014.62 503.351C1011.6 506.646 1007.94 509.163 1003.64 510.902C999.333 512.549 994.483 513.373 989.083 513.373C984.141 513.373 979.565 512.549 975.354 510.902C971.144 509.163 967.483 506.646 964.372 503.351C961.351 500.056 958.972 496.029 957.233 491.27C955.494 486.511 954.625 481.019 954.625 474.796C954.625 466.65 955.997 459.74 958.743 454.066C961.58 448.392 965.607 444.09 970.824 441.161C976.132 438.141 982.356 436.631 989.495 436.631C996.267 436.631 1002.22 438.141 1007.34 441.161C1012.56 444.09 1016.63 448.392 1019.56 454.066C1022.58 459.74 1024.09 466.696 1024.09 474.933ZM969.589 474.933C969.589 480.425 970.275 485.184 971.648 489.211C973.021 493.146 975.171 496.167 978.1 498.272C981.029 500.377 984.781 501.429 989.357 501.429C993.934 501.429 997.686 500.377 1000.61 498.272C1003.54 496.167 1005.69 493.146 1007.07 489.211C1008.44 485.184 1009.13 480.425 1009.13 474.933C1009.13 469.259 1008.39 464.5 1006.93 460.656C1005.56 456.812 1003.41 453.883 1000.48 451.869C997.64 449.764 993.888 448.712 989.22 448.712C982.356 448.712 977.368 451 974.256 455.576C971.144 460.152 969.589 466.605 969.589 474.933ZM1079.06 436.631C1080.34 436.631 1081.76 436.722 1083.31 436.905C1084.87 436.997 1086.15 437.134 1087.16 437.317L1085.65 450.908C1084.64 450.634 1083.45 450.405 1082.08 450.222C1080.7 450.039 1079.42 449.947 1078.23 449.947C1075.49 449.947 1072.83 450.497 1070.27 451.595C1067.8 452.602 1065.56 454.112 1063.54 456.125C1061.53 458.047 1059.93 460.427 1058.74 463.264C1057.64 466.101 1057.09 469.35 1057.09 473.011V512H1042.54V438.004H1054.07L1055.99 451.183H1056.54C1058.1 448.529 1059.97 446.103 1062.17 443.907C1064.37 441.71 1066.88 439.971 1069.72 438.69C1072.56 437.317 1075.67 436.631 1079.06 436.631ZM1115.41 512H1100.86V407.664H1115.41V512ZM1163.66 513.373C1154.78 513.373 1147.6 510.17 1142.11 503.763C1136.71 497.356 1134.01 487.838 1134.01 475.208C1134.01 462.486 1136.75 452.876 1142.24 446.378C1147.73 439.88 1154.96 436.631 1163.93 436.631C1167.69 436.631 1170.94 437.134 1173.68 438.141C1176.52 439.056 1178.94 440.338 1180.96 441.985C1183.06 443.632 1184.85 445.463 1186.31 447.476H1187.13C1186.95 446.195 1186.72 444.365 1186.45 441.985C1186.17 439.514 1186.04 437.317 1186.04 435.395V407.664H1200.59V512H1189.19L1186.72 502.116H1186.04C1184.66 504.221 1182.92 506.143 1180.82 507.881C1178.81 509.529 1176.38 510.856 1173.54 511.863C1170.71 512.869 1167.41 513.373 1163.66 513.373ZM1167.09 501.429C1174.23 501.429 1179.26 499.461 1182.19 495.526C1185.12 491.499 1186.59 485.504 1186.59 477.542V475.345C1186.59 466.65 1185.17 460.015 1182.33 455.439C1179.58 450.863 1174.46 448.575 1166.95 448.575C1161.01 448.575 1156.52 451 1153.5 455.851C1150.48 460.61 1148.97 467.154 1148.97 475.482C1148.97 483.811 1150.48 490.218 1153.5 494.702C1156.52 499.187 1161.05 501.429 1167.09 501.429Z" fill="#0D0D0D"/>
</svg>
